# xmcd
#
# Track frame offsets:
#	150
#	13109
#	26328
#	35889
#	46614
#	59838
#	70964
#	84566
#	96910
#	108884
#	121134
#	132113
#	147612
#	161390
#	176561
#
# Disc length: 2511 seconds
#
# Revision: 1
# Processed by: cddbd v1.5.2PL0 Copyright (c) Steve Scherf et al.
# Submitted via: audiograbber 1.82.02
#
DISCID=cc09cd0f
DTITLE=Patsy Cline - CB60050
DYEAR=1997
DGENRE=Karaoke
TTITLE0=A poor man's roses
TTITLE1=Always
TTITLE2=Bill Bailey
TTITLE3=Have you eve been lonely
TTITLE4=He called me baby
TTITLE5=I love you so much it hurts
TTITLE6=If I could see the world
TTITLE7=San Antonio Rose
TTITLE8=South of the border
TTITLE9=There he goes
TTITLE10=Three cigarettes in an ashtray
TTITLE11=The wayward wind
TTITLE12=You took him off my hands
TTITLE13=So wrong
TTITLE14=Pick me up on your way down
EXTD=
EXTT0=
EXTT1=
EXTT2=
EXTT3=
EXTT4=
EXTT5=
EXTT6=
EXTT7=
EXTT8=
EXTT9=
EXTT10=
EXTT11=
EXTT12=
EXTT13=
EXTT14=
PLAYORDER=
